<svg width="35" height="35" viewBox="0 0 35 35" fill="none" xmlns="http://www.w3.org/2000/svg">
  <path d="M13.281 7.94499C14.1531 5.39291 17.6794 5.31562 18.7133 7.71312L18.8008 7.94645L19.9777 11.3881C20.2474 12.1774 20.6833 12.8997 21.2558 13.5062C21.8284 14.1128 22.5244 14.5895 23.2969 14.9042L23.6133 15.0223L27.055 16.1977C29.6071 17.0698 29.6844 20.596 27.2883 21.63L27.055 21.7175L23.6133 22.8944C22.8238 23.1639 22.1012 23.5997 21.4944 24.1722C20.8876 24.7448 20.4107 25.4409 20.0958 26.2135L19.9777 26.5285L18.8023 29.9717C17.9302 32.5237 14.404 32.601 13.3715 30.205L13.281 29.9717L12.1056 26.53C11.8361 25.7404 11.4003 25.0179 10.8277 24.4111C10.2552 23.8043 9.55907 23.3273 8.78646 23.0125L8.47146 22.8944L5.02979 21.7189C2.47625 20.8469 2.39896 17.3206 4.79646 16.2881L5.02979 16.1977L8.47146 15.0223C9.26076 14.7526 9.98304 14.3167 10.5896 13.7442C11.1961 13.1716 11.6728 12.4756 11.9875 11.7031L12.1056 11.3881L13.281 7.94499ZM27.7083 2.91666C27.9812 2.91666 28.2485 2.99319 28.48 3.13755C28.7115 3.28192 28.8979 3.48833 29.0179 3.73332L29.0879 3.90395L29.5983 5.4002L31.096 5.91062C31.3695 6.0035 31.6091 6.17547 31.7847 6.40472C31.9603 6.63397 32.0639 6.91018 32.0823 7.19835C32.1007 7.48653 32.0332 7.77368 31.8882 8.02343C31.7433 8.27318 31.5275 8.47428 31.2681 8.60124L31.096 8.67124L29.5998 9.18166L29.0894 10.6794C28.9963 10.9527 28.8242 11.1923 28.5949 11.3677C28.3656 11.5431 28.0893 11.6465 27.8011 11.6648C27.513 11.6831 27.2259 11.6154 26.9762 11.4703C26.7266 11.3253 26.5256 11.1094 26.3988 10.85L26.3288 10.6794L25.8183 9.18312L24.3206 8.6727C24.0472 8.57981 23.8075 8.40784 23.632 8.17859C23.4564 7.94934 23.3528 7.67313 23.3344 7.38496C23.316 7.09679 23.3835 6.80963 23.5284 6.55988C23.6734 6.31014 23.8892 6.10904 24.1485 5.98207L24.3206 5.91207L25.8169 5.40166L26.3273 3.90395C26.4256 3.61582 26.6117 3.36569 26.8593 3.18863C27.107 3.01158 27.4039 2.91647 27.7083 2.91666Z" fill="#3A21B8"/> 
</svg>
