<svg width="35" height="35" viewBox="0 0 35 35" fill="none" xmlns="http://www.w3.org/2000/svg">
<g clip-path="url(#clip0_6_73)">
<path d="M17.5 2.91666L17.9725 2.91811L18.4362 2.92395L19.3346 2.94874L19.7706 2.9677L20.615 3.01728L21.4214 3.08436C28.3996 3.76103 31.2389 6.60041 31.9156 13.5785L31.9827 14.385L32.0323 15.2294C32.0396 15.3723 32.0469 15.5181 32.0512 15.6654L32.076 16.5637L32.0833 17.5L32.076 18.4362L32.0512 19.3346L32.0323 19.7706L31.9827 20.615L31.9156 21.4214C31.2389 28.3996 28.3996 31.2389 21.4214 31.9156L20.615 31.9827L19.7706 32.0323C19.6277 32.0396 19.4819 32.0469 19.3346 32.0512L18.4362 32.076L17.5 32.0833L16.5637 32.076L15.6654 32.0512L15.2294 32.0323L14.385 31.9827L13.5785 31.9156C6.60041 31.2389 3.76103 28.3996 3.08436 21.4214L3.01728 20.615L2.9677 19.7706C2.9606 19.6253 2.95428 19.48 2.94874 19.3346L2.92395 18.4362C2.91957 18.13 2.91666 17.8179 2.91666 17.5L2.91811 17.0275L2.92395 16.5637L2.94874 15.6654L2.9677 15.2294L3.01728 14.385L3.08436 13.5785C3.76103 6.60041 6.60041 3.76103 13.5785 3.08436L14.385 3.01728L15.2294 2.9677C15.3723 2.96041 15.5181 2.95311 15.6654 2.94874L16.5637 2.92395C16.87 2.91957 17.1821 2.91666 17.5 2.91666ZM17.5 11.6667C17.1132 11.6667 16.7423 11.8203 16.4688 12.0938C16.1953 12.3673 16.0417 12.7382 16.0417 13.125V16.0417H13.125L12.9544 16.0519C12.5853 16.0958 12.2469 16.2789 12.0083 16.564C11.7697 16.849 11.649 17.2144 11.6708 17.5855C11.6926 17.9565 11.8552 18.3053 12.1255 18.5604C12.3958 18.8156 12.7533 18.9579 13.125 18.9583H16.0417V21.875L16.0519 22.0456C16.0958 22.4147 16.2789 22.7531 16.564 22.9917C16.849 23.2303 17.2144 23.351 17.5855 23.3292C17.9565 23.3074 18.3053 23.1448 18.5604 22.8745C18.8156 22.6042 18.9579 22.2467 18.9583 21.875V18.9583H21.875L22.0456 18.9481C22.4147 18.9042 22.7531 18.721 22.9917 18.436C23.2303 18.151 23.351 17.7856 23.3292 17.4145C23.3074 17.0435 23.1448 16.6947 22.8745 16.4396C22.6042 16.1844 22.2467 16.0421 21.875 16.0417H18.9583V13.125L18.9481 12.9544C18.9063 12.5996 18.7358 12.2726 18.4689 12.0352C18.2019 11.7978 17.8572 11.6667 17.5 11.6667Z" fill="#110A37"/>
</g>
<defs>
<clipPath id="clip0_6_73">
<rect width="35" height="35" fill="white"/>
</clipPath>
</defs>
</svg>
