<svg width="36" height="35" viewBox="0 0 36 35" fill="none" xmlns="http://www.w3.org/2000/svg">
<path d="M11.4375 17.5V8.75C11.4375 7.00952 12.1289 5.34032 13.3596 4.10961C14.5903 2.8789 16.2595 2.1875 18 2.1875C19.7405 2.1875 21.4097 2.8789 22.6404 4.10961C23.8711 5.34032 24.5625 7.00952 24.5625 8.75V17.5C24.5625 19.2405 23.8711 20.9097 22.6404 22.1404C21.4097 23.3711 19.7405 24.0625 18 24.0625C16.2595 24.0625 14.5903 23.3711 13.3596 22.1404C12.1289 20.9097 11.4375 19.2405 11.4375 17.5ZM28.9375 17.5C28.9375 17.2099 28.8223 16.9317 28.6171 16.7266C28.412 16.5215 28.1338 16.4062 27.8438 16.4062C27.5537 16.4062 27.2755 16.5215 27.0704 16.7266C26.8652 16.9317 26.75 17.2099 26.75 17.5C26.75 19.8206 25.8281 22.0462 24.1872 23.6872C22.5462 25.3281 20.3206 26.25 18 26.25C15.6794 26.25 13.4538 25.3281 11.8128 23.6872C10.1719 22.0462 9.25 19.8206 9.25 17.5C9.25 17.2099 9.13477 16.9317 8.92965 16.7266C8.72453 16.5215 8.44633 16.4062 8.15625 16.4062C7.86617 16.4062 7.58797 16.5215 7.38285 16.7266C7.17773 16.9317 7.0625 17.2099 7.0625 17.5C7.06583 20.2105 8.07411 22.8235 9.89236 24.8337C11.7106 26.8439 14.2097 28.1084 16.9062 28.3828V32.8125C16.9062 33.1026 17.0215 33.3808 17.2266 33.5859C17.4317 33.791 17.7099 33.9062 18 33.9062C18.2901 33.9062 18.5683 33.791 18.7734 33.5859C18.9785 33.3808 19.0938 33.1026 19.0938 32.8125V28.3828C21.7903 28.1084 24.2894 26.8439 26.1076 24.8337C27.9259 22.8235 28.9342 20.2105 28.9375 17.5Z" fill="#110A37"/>
</svg>
