<svg width="36" height="35" viewBox="0 0 36 35" fill="none" xmlns="http://www.w3.org/2000/svg">
<path d="M13.625 4.375C13.9455 4.37497 14.2571 4.48056 14.5117 4.67542L14.6575 4.80229L18.6037 8.75H28.2083C29.3243 8.74994 30.398 9.17631 31.21 9.94187C32.0219 10.7074 32.5106 11.7543 32.576 12.8683L32.5833 13.125V24.7917C32.5834 25.9076 32.157 26.9814 31.3914 27.7933C30.6259 28.6052 29.579 29.0939 28.465 29.1594L28.2083 29.1667H7.79166C6.67572 29.1667 5.60195 28.7404 4.79003 27.9748C3.9781 27.2092 3.48942 26.1623 3.42395 25.0483L3.41666 24.7917V8.75C3.41659 7.63407 3.84296 6.56029 4.60853 5.74837C5.37409 4.93645 6.42098 4.44776 7.53499 4.38229L7.79166 4.375H13.625Z" fill="#110A37"/>
</svg>
